#!OML:ASF F:\VICON\USERDATA\INSTALL\rory3\rory3.ASF
:FULLY-SPECIFIED
:DEGREES
2177
root -1.9682 17.3975 0.414937 2.15805 21.7577 2.32022
lowerback 6.4942 -4.55039 -7.19
upperback -0.867485 -6.56403 2.03027
thorax -3.49528 -3.1041 6.709
lowerneck -17.7172 -6.78157 -12.3704
upperneck 31.5752 -8.32887 7.17147
head 14.7756 -4.1002 3.56295
rclavicle 1.0312e-014 -3.97569e-016
rhumerus -19.0245 8.94991 -47.8833
rradius 73.7399
rwrist 22.0368
rhand -24.2662 16.9531
rfingers 7.12502
rthumb 2.22023 -13.0151
lclavicle 1.0312e-014 -3.97569e-016
lhumerus -24.8658 13.4971 74.8345
lradius 63.7026
lwrist 16.528
lhand -18.5023 13.3136
lfingers 7.12502
lthumb 7.78559 43.1502
rfemur -21.956 -6.48522 17.5945
rtibia 59.1328
rfoot -23.0593 -15.8564
rtoes 1.99555
lfemur -17.5764 0.892705 -22.8244
ltibia 36.2994
lfoot -16.6947 -12.0197
ltoes -7.87677
2178
root -1.92991 17.4164 0.391846 1.8272 21.3239 2.1137
lowerback 6.68192 -4.64204 -7.08192
upperback -0.631454 -6.67607 2.23133
thorax -3.32199 -3.17678 6.87043
lowerneck -17.6135 -6.89081 -12.5354
upperneck 31.2326 -8.53042 7.44307
head 14.6484 -4.17047 3.65823
rclavicle -5.98342e-014 9.93923e-015
rhumerus -19.4183 7.74248 -47.4493
rradius 73.5267
rwrist 21.8558
rhand -24.0865 16.7075
rfingers 7.12502
rthumb 2.39379 -13.2588
lclavicle -5.98342e-014 9.93923e-015
lhumerus -23.1061 12.603 75.4014
lradius 63.5443
lwrist 16.5445
lhand -18.5148 13.3221
lfingers 7.12502
lthumb 7.77346 43.1592
rfemur -23.1226 -5.42086 17.5343
rtibia 61.1761
rfoot -21.2252 -16.6762
rtoes 3.67086
lfemur -17.2302 1.45272 -22.793
ltibia 36.0153
lfoot -16.5897 -12.0434
ltoes -9.78718
2179
root -1.88846 17.432 0.366528 1.58107 20.7938 2.27697
lowerback 6.9065 -4.6675 -7.23494
upperback -0.374012 -6.72883 2.27098
thorax -3.14678 -3.21669 7.00678
lowerneck -17.5516 -7.00912 -12.5895
upperneck 30.9503 -8.77199 7.6928
head 14.557 -4.24738 3.71821
rclavicle 6.21202e-014 -2.14687e-014
rhumerus -19.9452 6.33245 -47.094
rradius 73.4077
rwrist 21.715
rhand -23.9594 16.9043
rfingers 7.12502
rthumb 2.51658 -13.0606
lclavicle 6.21202e-014 -2.14687e-014
lhumerus -21.4422 11.6008 75.8647
lradius 63.4739
lwrist 16.475
lhand -18.585 13.0746
lfingers 7.12502
lthumb 7.70572 42.9142
rfemur -24.3876 -4.42741 17.0582
rtibia 63.3025
rfoot -18.9498 -17.3724
rtoes 6.52404
lfemur -16.7136 1.91207 -23.1198
ltibia 35.6307
lfoot -16.5376 -12.1032
ltoes -10.41
2180
root -1.84566 17.4402 0.342162 1.45151 20.2321 2.64005
lowerback 7.07052 -4.71106 -7.5596
upperback -0.197321 -6.81993 2.27437
thorax -3.00011 -3.26997 7.2016
lowerneck -17.4549 -7.1036 -12.6859
upperneck 30.815 -8.94616 7.85186
head 14.5139 -4.31516 3.76504
rclavicle -2.65874e-014 -1.94809e-014
rhumerus -20.5288 4.9388 -46.8242
rradius 73.3117
rwrist 21.6966
rhand -24.0133 16.745
rfingers 7.12502
rthumb 2.46451 -13.2205
lclavicle -2.65874e-014 -1.94809e-014
lhumerus -19.8948 10.7075 76.2563
lradius 63.2504
lwrist 16.3633
lhand -18.1424 11.7546
lfingers 7.12502
lthumb 8.13287 41.5781
rfemur -25.8332 -3.4972 16.3645
rtibia 65.52
rfoot -16.4632 -17.8732
rtoes 10.7957
lfemur -16.1613 2.1788 -23.6369
ltibia 35.139
lfoot -16.436 -12.0737
ltoes -10.2926
2181
root -1.80242 17.4443 0.316979 1.3682 19.5259 2.95781
lowerback 7.21224 -4.73515 -7.79365
upperback -0.0636393 -6.87861 2.24917
thorax -2.90471 -3.30508 7.31467
lowerneck -17.4261 -7.17074 -12.6141
upperneck 30.7653 -9.07096 7.83407
head 14.4964 -4.36437 3.71977
rclavicle 8.82107e-014 -1.07344e-014
rhumerus -21.0632 3.76345 -46.6504
rradius 73.1606
rwrist 21.6344
rhand -24.0545 16.8292
rfingers 7.12502
rthumb 2.42477 -13.1367
lclavicle 8.82107e-014 -1.07344e-014
lhumerus -18.5181 9.88767 76.5248
lradius 63.248
lwrist 16.2258
lhand -17.9423 11.1669
lfingers 7.12502
lthumb 8.32597 40.9828
rfemur -27.509 -2.60638 15.719
rtibia 67.7878
rfoot -14.0947 -18.1591
rtoes 14.8663
lfemur -15.628 2.56389 -24.118
ltibia 34.5792
lfoot -16.2994 -11.9421
ltoes -10.043
2182
root -1.75756 17.4495 0.288939 1.3914 18.8593 3.38113
lowerback 7.31193 -4.78564 -8.10584
upperback 0.0647609 -6.97625 2.22708
thorax -2.77408 -3.36085 7.47211
lowerneck -17.4871 -7.232 -12.6171
upperneck 30.7442 -9.15318 7.82093
head 14.5112 -4.40133 3.69621
rclavicle 6.59965e-014 -2.78299e-015
rhumerus -21.4927 2.79443 -46.4212
rradius 73.0625
rwrist 21.5667
rhand -23.9321 16.7782
rfingers 7.12502
rthumb 2.54295 -13.1864
lclavicle 6.59965e-014 -2.78299e-015
lhumerus -17.069 9.16909 76.7904
lradius 63.2968
lwrist 16.2634
lhand -18.3436 12.226
lfingers 7.12502
lthumb 7.93874 42.057
rfemur -29.3037 -1.77197 14.9652
rtibia 70.0243
rfoot -12.1214 -17.7685
rtoes 18.1269
lfemur -15.2082 2.80535 -24.7358
ltibia 34.0127
lfoot -16.1048 -11.609
ltoes -9.69755
2183
root -1.71631 17.4591 0.261878 1.27707 18.2583 3.55576
lowerback 7.51735 -4.92818 -8.20972
upperback 0.158034 -7.18678 2.27088
thorax -2.73341 -3.47003 7.60323
lowerneck -17.5023 -7.16898 -12.4695
upperneck 30.8418 -9.05106 7.62267
head 14.5226 -4.36859 3.61012
rclavicle -3.28492e-014 1.51076e-014
rhumerus -21.8657 2.0313 -46.303
rradius 72.9282
rwrist 21.7187
rhand -23.8333 16.8712
rfingers 7.12502
rthumb 2.63837 -13.0922
lclavicle -3.28492e-014 1.51076e-014
lhumerus -15.7409 8.76709 76.9408
lradius 63.3736
lwrist 16.3018
lhand -18.2811 13.0582
lfingers 7.12502
lthumb 7.99908 42.8869
rfemur -31.0096 -0.93807 14.5156
rtibia 72.1554
rfoot -10.9777 -16.9811
rtoes 19.7084
lfemur -14.7639 3.17432 -25.0755
ltibia 33.4627
lfoot -15.9327 -11.4567
ltoes -9.24432
2184
root -1.67898 17.4728 0.231922 1.2065 17.7345 3.5458
lowerback 7.68194 -5.1253 -8.1652
upperback 0.216772 -7.45279 2.39407
thorax -2.70231 -3.60741 7.73668
lowerneck -17.3641 -7.07301 -12.5001
upperneck 30.806 -8.91317 7.60293
head 14.4578 -4.32122 3.63569
rclavicle 1.06499e-013 -2.22639e-014
rhumerus -22.1887 1.42652 -46.1937
rradius 72.8648
rwrist 22.0149
rhand -23.8382 16.9495
rfingers 7.12502
rthumb 2.63364 -13.0139
lclavicle 1.06499e-013 -2.22639e-014
lhumerus -14.5324 8.45851 77.1257
lradius 63.4875
lwrist 16.2988
lhand -17.7909 11.5602
lfingers 7.12502
lthumb 8.47209 41.3702
rfemur -32.8497 -0.11925 14.2996
rtibia 74.1899
rfoot -10.5478 -16.2013
rtoes 19.9202
lfemur -14.4616 3.41766 -25.2239
ltibia 32.9203
lfoot -15.7372 -11.2175
ltoes -9.15148
2185
root -1.64555 17.4898 0.200936 1.24084 17.3204 3.56557
lowerback 7.84202 -5.35667 -8.17051
upperback 0.214769 -7.77032 2.52254
thorax -2.7146 -3.76556 7.91038
lowerneck -17.1594 -6.96543 -12.5453
upperneck 30.7674 -8.78546 7.64874
head 14.3829 -4.27301 3.69031
rclavicle 3.97072e-014 -3.26007e-014
rhumerus -22.5914 0.877359 -46.1417
rradius 72.7631
rwrist 22.326
rhand -23.9651 17.1719
rfingers 7.12502
rthumb 2.51102 -12.7931
lclavicle 3.97072e-014 -3.26007e-014
lhumerus -13.369 8.26348 77.3243
lradius 63.5721
lwrist 16.0486
lhand -17.7543 10.6296
lfingers 7.12502
lthumb 8.50747 40.4382
rfemur -34.8108 0.600644 14.0732
rtibia 76.163
rfoot -10.6366 -15.6271
rtoes 18.3876
lfemur -14.2688 3.57072 -25.3997
ltibia 32.3873
lfoot -15.5055 -11.0113
ltoes -9.14951
2186
root -1.61386 17.5074 0.169713 1.31137 16.959 3.573
lowerback 8.00127 -5.60178 -8.13558
upperback 0.167209 -8.10409 2.6416
thorax -2.77654 -3.92791 8.05681
lowerneck -16.9638 -6.87859 -12.5074
upperneck 30.8659 -8.6698 7.53479
head 14.3589 -4.24202 3.665
rclavicle 1.66979e-014 7.95139e-016
rhumerus -22.9856 0.405763 -46.0828
rradius 72.5787
rwrist 22.6469
rhand -23.9208 17.2161
rfingers 7.12502
rthumb 2.55383 -12.7483
lclavicle 1.66979e-014 7.95139e-016
lhumerus -12.1983 7.96321 77.538
lradius 63.685
lwrist 16.0924
lhand -18.3458 11.7196
lfingers 7.12502
lthumb 7.9366 41.5506
rfemur -36.8646 1.2208 13.864
rtibia 78.0907
rfoot -10.8217 -15.1954
rtoes 16.454
lfemur -14.1313 3.64625 -25.5727
ltibia 31.8317
lfoot -15.2173 -10.7839
ltoes -9.34292
2187
root -1.58079 17.5332 0.14071 1.3121 16.6247 3.38274
lowerback 8.12878 -5.8331 -7.93162
upperback 0.172745 -8.39614 2.85115
thorax -2.78172 -4.07696 8.19592
lowerneck -16.9123 -6.81978 -12.5279
upperneck 30.9988 -8.54335 7.37711
head 14.3827 -4.21531 3.63105
rclavicle -5.87906e-014 -7.95139e-015
rhumerus -23.5097 -0.089402 -45.9555
rradius 72.6033
rwrist 22.7604
rhand -24.0171 17.2564
rfingers 7.12502
rthumb 2.46088 -12.7092
lclavicle -5.87906e-014 -7.95139e-015
lhumerus -10.8635 7.76164 77.9023
lradius 63.7492
lwrist 16.1522
lhand -18.1876 12.0187
lfingers 7.12502
lthumb 8.08923 41.8439
rfemur -38.9398 1.83452 13.8603
rtibia 79.9525
rfoot -10.9312 -14.6418
rtoes 15.7387
lfemur -13.9646 3.66586 -25.5251
ltibia 31.258
lfoot -14.8502 -10.589
ltoes -8.89495
2188
root -1.55063 17.5597 0.114046 1.29576 16.4066 3.32651
lowerback 8.32248 -6.07358 -7.89222
upperback 0.187804 -8.72024 3.04964
thorax -2.78453 -4.2406 8.42452
lowerneck -16.8481 -6.805 -12.6316
upperneck 31.0984 -8.4757 7.27981
head 14.4055 -4.21575 3.62433
rclavicle -8.33902e-014 -1.59028e-014
rhumerus -24.1225 -0.478099 -45.7412
rradius 72.671
rwrist 22.8864
rhand -24.2367 17.2106
rfingers 7.12502
rthumb 2.24877 -12.7572
lclavicle -8.33902e-014 -1.59028e-014
lhumerus -9.60177 7.54022 78.3811
lradius 63.9467
lwrist 16.1589
lhand -18.0987 11.9423
lfingers 7.12502
lthumb 8.17512 41.7642
rfemur -40.9688 2.34914 13.7041
rtibia 81.7564
rfoot -10.9103 -13.7404
rtoes 15.7476
lfemur -13.7277 3.59531 -25.6156
ltibia 30.6815
lfoot -14.5222 -10.3351
ltoes -8.48034
2189
root -1.52274 17.5832 0.0852425 1.24648 16.1982 3.24735
lowerback 8.64645 -6.28915 -7.79207
upperback 0.104398 -9.01697 3.23044
thorax -2.97927 -4.37633 8.62889
lowerneck -16.3504 -6.74826 -12.7734
upperneck 31.0116 -8.40521 7.25268
head 14.2545 -4.21882 3.65817
rclavicle 2.68359e-014 -6.36111e-015
rhumerus -24.9894 -0.684266 -45.4716
rradius 72.8121
rwrist 22.7961
rhand -24.2708 17.2975
rfingers 7.12502
rthumb 2.21587 -12.6707
lclavicle 2.68359e-014 -6.36111e-015
lhumerus -8.58035 7.30214 78.93
lradius 64.3097
lwrist 16.1745
lhand -18.0956 12.3975
lfingers 7.12502
lthumb 8.17803 42.2192
rfemur -43.0308 2.91703 13.5684
rtibia 83.5021
rfoot -10.6365 -12.793
rtoes 14.7575
lfemur -13.469 3.54164 -25.6712
ltibia 30.0958
lfoot -14.179 -10.1109
ltoes -8.27129
2190
root -1.49414 17.6101 0.0555526 1.10601 15.9645 2.94969
lowerback 8.95277 -6.51275 -7.49947
upperback 0.144107 -9.29673 3.44931
thorax -3.05987 -4.51722 8.75591
lowerneck -15.9621 -6.71303 -12.8209
upperneck 30.8112 -8.36248 7.19011
head 14.074 -4.22263 3.65091
rclavicle 2.75317e-014 -8.74653e-015
rhumerus -25.6548 -1.0757 -45.321
rradius 72.7724
rwrist 22.6726
rhand -24.4607 17.3601
rfingers 7.12502
rthumb 2.03238 -12.61
lclavicle 2.75317e-014 -8.74653e-015
lhumerus -7.34163 6.91131 79.4134
lradius 64.7392
lwrist 16.4709
lhand -18.3573 12.8908
lfingers 7.12502
lthumb 7.92547 42.7222
rfemur -45.0702 3.5351 13.6887
rtibia 85.1669
rfoot -10.2446 -11.9816
rtoes 13.5292
lfemur -13.1395 3.51437 -25.5045
ltibia 29.4743
lfoot -13.6964 -9.80814
ltoes -7.68806
